:SAMPLES-PER-SECOND 30
:FULLY-SPECIFIED
:DEGREES
509
root  -2.8994 30.8042 27.3481 -106.177 -3.89076 98.3351
Spine  -5.33933 -0.0243206 -8.06053
Spine1  -0.776133 21.098 15.9509
Neck  3.97569e-016 0 -2.38542e-015
Head  34.957 5.36707 1.52627
R_Clavicle  0.490737 -10.769 2.80612
R_UpperArm  12.9824 7.47126 -1.63356
R_Forearm  8.49718 32.6473 -32.1873
R_Hand  0.71277 10.2908 -7.76506
L_Clavicle  -0.62747 18.1814 -5.51825
L_UpperArm  6.0249 12.0311 25.8508
L_Forearm  -26.339 24.7655 32.2745
L_Hand  -0.258216 -0.241611 -5.49902
L_Thigh  1.86764 8.01031 -7.28015
L_Calf  -12.6954 3.35879 -25.7999
L_Foot  3.45754 13.6735 0.407025
L_Toe0  0.505156 0.0344446 -6.1361
R_Thigh  5.03238 14.4238 -1.29021
R_Calf  -4.57306 5.29574 16.9437
R_Foot  -2.24174 -5.24581 4.41063
R_Toe0  -1.78853 -0.272804 -17.3235
510
root  -2.34435 31.5698 26.2158 -102.304 -3.48119 97.1676
Spine  -5.15034 0.604679 -10.176
Spine1  -1.44577 17.7853 14.5254
Neck  3.97569e-016 0 -2.38542e-015
Head  31.2366 6.03182 4.4733
R_Clavicle  0.535217 -10.2449 3.18821
R_UpperArm  10.6508 7.98033 -1.67248
R_Forearm  7.03572 30.0098 -28.7031
R_Hand  1.04779 10.9943 -6.15311
L_Clavicle  -0.686996 18.897 -5.59598
L_UpperArm  7.5156 12.4265 29.6833
L_Forearm  -22.7163 27.2484 34.9515
L_Hand  -0.220652 -0.723036 -5.22701
L_Thigh  3.20487 5.0571 -1.76187
L_Calf  -10.9902 2.84046 -21.7251
L_Foot  3.96655 12.9786 2.53346
L_Toe0  0.505156 0.0344128 -6.1361
R_Thigh  4.82506 13.5365 -5.55208
R_Calf  -2.78298 6.98558 22.5975
R_Foot  -2.06261 -4.96885 3.87284
R_Toe0  -1.7659 -0.273738 -17.3435
511
root  -1.85572 32.4083 25.0761 -99.1579 -2.88174 95.4382
Spine  -3.79673 2.08902 -11.5761
Spine1  -1.57007 12.6823 10.7644
Neck  3.97569e-016 0 -2.38542e-015
Head  25.9495 5.47968 8.73612
R_Clavicle  0.515305 -10.3718 3.01467
R_UpperArm  10.8078 7.60395 1.77508
R_Forearm  8.13837 25.9537 -23.8795
R_Hand  1.17063 11.2893 -5.62501
L_Clavicle  -0.642475 18.3514 -5.57893
L_UpperArm  0.46078 13.2993 32.3492
L_Forearm  -12.4501 32.007 36.7378
L_Hand  -0.133819 -1.57245 -3.93073
L_Thigh  2.19819 1.86223 2.39851
L_Calf  -7.85128 1.67131 -12.8186
L_Foot  3.68171 12.3215 2.17543
L_Toe0  0.505156 0.034346 -6.1361
R_Thigh  5.32606 11.7867 -10.1094
R_Calf  -2.28645 9.04678 29.6893
R_Foot  -1.77791 -5.01137 2.07419
R_Toe0  -1.99924 -0.266745 -17.2095
512
root  -1.42321 33.0188 23.965 -97.0586 -2.66175 94.4917
Spine  -1.79722 5.41157 -11.7857
Spine1  -0.881455 6.20371 7.04785
Neck  3.97569e-016 0 -2.38542e-015
Head  20.7953 4.48785 12.4511
R_Clavicle  0.478939 -9.90002 2.6559
R_UpperArm  11.8384 7.06971 5.3847
R_Forearm  11.7267 20.777 -18.4002
R_Hand  0.951537 11.6047 -7.22884
L_Clavicle  -0.506294 16.6799 -5.3406
L_UpperArm  -8.42467 14.5595 34.4052
L_Forearm  -4.46219 34.7261 38.1898
L_Hand  -0.0711916 -1.87292 -2.32744
L_Thigh  -0.76327 0.258275 4.45445
L_Calf  -4.63375 0.00306798 -0.586394
L_Foot  3.30702 11.5063 1.63778
L_Toe0  0.505156 0.0342538 -6.1361
R_Thigh  5.17137 10.7808 -14.4318
R_Calf  -2.58472 10.8139 35.0682
R_Foot  -1.73001 -6.20294 -0.315118
R_Toe0  -2.69739 -0.210818 -15.9187
513
root  -1.01565 33.3402 22.8622 -95.3275 -2.6721 94.2422
Spine  0.253894 9.34855 -11.8872
Spine1  0.346932 0.0932172 5.14046
Neck  3.97569e-016 0 -2.38542e-015
Head  16.9412 2.83406 14.3472
R_Clavicle  0.461598 -8.45501 2.46546
R_UpperArm  11.9992 7.2342 7.79649
R_Forearm  16.5404 14.7976 -12.7028
R_Hand  0.401764 11.5473 -10.5676
L_Clavicle  -0.339784 14.4452 -4.82152
L_UpperArm  -12.4426 15.6322 35.9892
L_Forearm  -5.44923 33.7405 38.5924
L_Hand  -0.0377601 -1.35598 -1.12325
L_Thigh  -4.67892 -0.27468 5.02051
L_Calf  -1.59527 -1.89437 13.9187
L_Foot  2.93357 11.7924 0.19904
L_Toe0  0.505156 0.0341452 -6.1361
R_Thigh  2.48447 10.8859 -18.0759
R_Calf  -2.38261 12.055 38.1918
R_Foot  -1.76531 -7.36715 -1.94436
R_Toe0  -2.06928 -0.126704 -13.6458
